<svg xmlns="http://www.w3.org/2000/svg" viewBox="0 0 480 720" role="img" aria-labelledby="title desc">
  <title id="title">Story Card back</title>
  <desc id="desc">An original antique gold compass and open book on deep navy with botanical corner ornaments.</desc>
  <defs>
    <radialGradient id="navy"><stop stop-color="#20334e"/><stop offset="1" stop-color="#0b1425"/></radialGradient>
    <linearGradient id="gold" x2="1" y2="1"><stop stop-color="#e4ce8a"/><stop offset=".5" stop-color="#a27c36"/><stop offset="1" stop-color="#d8bd73"/></linearGradient>
    <pattern id="seeds" width="34" height="34" patternUnits="userSpaceOnUse"><path d="M17 9 19 17 17 25 15 17Z" fill="#9f8142" opacity=".12"/><circle cx="0" cy="0" r="1" fill="#cbb275" opacity=".2"/></pattern>
    <g id="corner" fill="none" stroke="url(#gold)" stroke-width="2.4" stroke-linecap="round">
      <path d="M0 90V0h90M13 70V13h57M23 57c-2-22 12-32 34-34-8 24-28 28-31 11 16-4 21 7 16 18-7 16-22 21-32 27"/>
      <path d="M42 9c9 9 20 5 25 1M9 42c9 9 5 20 1 25M43 43l17 17m-8-17 9 18-18-9"/>
      <circle cx="20" cy="20" r="3"/>
    </g>
  </defs>
  <rect width="480" height="720" rx="27" fill="url(#navy)"/>
  <rect x="20" y="20" width="440" height="680" rx="16" fill="url(#seeds)" stroke="url(#gold)" stroke-width="3"/>
  <rect x="33" y="33" width="414" height="654" rx="8" fill="none" stroke="#ae8e4d" stroke-width="1"/>
  <use href="#corner" x="45" y="45"/><use href="#corner" transform="translate(435 45) scale(-1 1)"/><use href="#corner" transform="translate(45 675) scale(1 -1)"/><use href="#corner" transform="translate(435 675) scale(-1 -1)"/>
  <g fill="none" stroke="url(#gold)">
    <path d="M240 94c-30 31-34 63 0 86 34-23 30-55 0-86Zm0 446c-30 23-34 55 0 86 34-31 30-63 0-86Z" stroke-width="2"/>
    <path d="M240 113v43m-10-23 10 12 10-12M240 566v40m-10-23 10 12 10-12" stroke-width="1.5"/>
    <circle cx="240" cy="350" r="153" stroke-width="2"/><circle cx="240" cy="350" r="143" stroke-width="1"/><circle cx="240" cy="350" r="108" stroke-width="1" stroke-dasharray="2 9"/>
    <path d="M240 181v35m0 268v35M71 350h35m268 0h35M119 229l25 25m192 192 25 25M119 471l25-25m192-192 25-25" stroke-width="2"/>
  </g>
  <g fill="url(#gold)" stroke="#ddc584" stroke-width="1">
    <path d="m240 228 23 99 99 23-99 23-23 99-23-99-99-23 99-23Z"/>
    <path d="m162 272 67 48 11 30-30-11Zm156 0-48 67-30 11 11-30Zm0 156-67-48-11-30 30 11Zm-156 0 48-67 30-11-11 30Z" opacity=".75"/>
  </g>
  <circle cx="240" cy="350" r="47" fill="#142238" stroke="url(#gold)" stroke-width="2"/>
  <g fill="none" stroke="url(#gold)" stroke-width="2" stroke-linejoin="round">
    <path d="M207 332c12-5 23-3 33 3 10-6 21-8 33-3v37c-13-4-23-2-33 5-10-7-20-9-33-5Z"/>
    <path d="M240 335v39m-26-33c7-2 14 0 19 3m-19 7c7-2 14 0 19 3m14-10c5-3 12-5 19-3m-19 13c5-3 12-5 19-3"/>
  </g>
  <g fill="#d6bb76"><path d="m240 67 3 6 6 3-6 3-3 6-3-6-6-3 6-3Zm0 568 3 6 6 3-6 3-3 6-3-6-6-3 6-3Z"/><circle cx="82" cy="350" r="3"/><circle cx="398" cy="350" r="3"/></g>
</svg>
